<svg viewBox="0 0 600 60" style="background-color: #eee" xmlns="http://www.w3.org/2000/svg"><g id="field"><line stroke-width="1" stroke="white" x1="0" y1="0" x2="160" y2="0"/><line stroke-width="0.5" stroke="white" x1="70.75" y1="3" x2="72.75" y2="3"/><line stroke-width="0.5" stroke="white" x1="89.25" y1="3" x2="87.25" y2="3"/><line stroke-width="0.5" stroke="white" x1="70.75" y1="6" x2="72.75" y2="6"/><line stroke-width="0.5" stroke="white" x1="89.25" y1="6" x2="87.25" y2="6"/><line stroke-width="0.5" stroke="white" x1="70.75" y1="9" x2="72.75" y2="9"/><line stroke-width="0.5" stroke="white" x1="89.25" y1="9" x2="87.25" y2="9"/><line stroke-width="0.5" stroke="white" x1="70.75" y1="12" x2="72.75" y2="12"/><line stroke-width="0.5" stroke="white" x1="89.25" y1="12" x2="87.25" y2="12"/><line stroke-width="1" stroke="white" x1="0" y1="15" x2="160" y2="15"/><line stroke-width="0.5" stroke="white" x1="70.75" y1="18" x2="72.75" y2="18"/><line stroke-width="0.5" stroke="white" x1="89.25" y1="18" x2="87.25" y2="18"/><line stroke-width="0.5" stroke="white" x1="70.75" y1="21" x2="72.75" y2="21"/><line stroke-width="0.5" stroke="white" x1="89.25" y1="21" x2="87.25" y2="21"/><line stroke-width="0.5" stroke="white" x1="70.75" y1="24" x2="72.75" y2="24"/><line stroke-width="0.5" stroke="white" x1="89.25" y1="24" x2="87.25" y2="24"/><line stroke-width="0.5" stroke="white" x1="70.75" y1="27" x2="72.75" y2="27"/><line stroke-width="0.5" stroke="white" x1="89.25" y1="27" x2="87.25" y2="27"/><line stroke-width="1" stroke="white" x1="0" y1="30" x2="160" y2="30"/><line stroke-width="0.5" stroke="white" x1="70.75" y1="33" x2="72.75" y2="33"/><line stroke-width="0.5" stroke="white" x1="89.25" y1="33" x2="87.25" y2="33"/><line stroke-width="0.5" stroke="white" x1="70.75" y1="36" x2="72.75" y2="36"/><line stroke-width="0.5" stroke="white" x1="89.25" y1="36" x2="87.25" y2="36"/><line stroke-width="0.5" stroke="white" x1="70.75" y1="39" x2="72.75" y2="39"/><line stroke-width="0.5" stroke="white" x1="89.25" y1="39" x2="87.25" y2="39"/><line stroke-width="0.5" stroke="white" x1="70.75" y1="42" x2="72.75" y2="42"/><line stroke-width="0.5" stroke="white" x1="89.25" y1="42" x2="87.25" y2="42"/><line stroke-width="1" stroke="white" x1="0" y1="45" x2="160" y2="45"/><line stroke-width="0.5" stroke="white" x1="70.75" y1="48" x2="72.75" y2="48"/><line stroke-width="0.5" stroke="white" x1="89.25" y1="48" x2="87.25" y2="48"/><line stroke-width="0.5" stroke="white" x1="70.75" y1="51" x2="72.75" y2="51"/><line stroke-width="0.5" stroke="white" x1="89.25" y1="51" x2="87.25" y2="51"/><line stroke-width="0.5" stroke="white" x1="70.75" y1="54" x2="72.75" y2="54"/><line stroke-width="0.5" stroke="white" x1="89.25" y1="54" x2="87.25" y2="54"/><line stroke-width="0.5" stroke="white" x1="70.75" y1="57" x2="72.75" y2="57"/><line stroke-width="0.5" stroke="white" x1="89.25" y1="57" x2="87.25" y2="57"/><line stroke-width="1" stroke="white" x1="0" y1="60" x2="160" y2="60"/><line stroke-width="0.5" stroke="white" x1="70.75" y1="63" x2="72.75" y2="63"/><line stroke-width="0.5" stroke="white" x1="89.25" y1="63" x2="87.25" y2="63"/><line stroke-width="0.5" stroke="white" x1="70.75" y1="66" x2="72.75" y2="66"/><line stroke-width="0.5" stroke="white" x1="89.25" y1="66" x2="87.25" y2="66"/><line stroke-width="0.5" stroke="white" x1="70.75" y1="69" x2="72.75" y2="69"/><line stroke-width="0.5" stroke="white" x1="89.25" y1="69" x2="87.25" y2="69"/><line stroke-width="0.5" stroke="white" x1="70.75" y1="72" x2="72.75" y2="72"/><line stroke-width="0.5" stroke="white" x1="89.25" y1="72" x2="87.25" y2="72"/><line stroke-width="1" stroke="white" x1="0" y1="75" x2="160" y2="75"/><line stroke-width="0.5" stroke="white" x1="70.75" y1="78" x2="72.75" y2="78"/><line stroke-width="0.5" stroke="white" x1="89.25" y1="78" x2="87.25" y2="78"/><line stroke-width="0.5" stroke="white" x1="70.75" y1="81" x2="72.75" y2="81"/><line stroke-width="0.5" stroke="white" x1="89.25" y1="81" x2="87.25" y2="81"/><line stroke-width="0.5" stroke="white" x1="70.75" y1="84" x2="72.75" y2="84"/><line stroke-width="0.5" stroke="white" x1="89.25" y1="84" x2="87.25" y2="84"/><line stroke-width="0.5" stroke="white" x1="70.75" y1="87" x2="72.75" y2="87"/><line stroke-width="0.5" stroke="white" x1="89.25" y1="87" x2="87.25" y2="87"/><line stroke-width="1" stroke="white" x1="0" y1="90" x2="160" y2="90"/><line stroke-width="0.5" stroke="white" x1="70.75" y1="93" x2="72.75" y2="93"/><line stroke-width="0.5" stroke="white" x1="89.25" y1="93" x2="87.25" y2="93"/><line stroke-width="0.5" stroke="white" x1="70.75" y1="96" x2="72.75" y2="96"/><line stroke-width="0.5" stroke="white" x1="89.25" y1="96" x2="87.25" y2="96"/><line stroke-width="0.5" stroke="white" x1="70.75" y1="99" x2="72.75" y2="99"/><line stroke-width="0.5" stroke="white" x1="89.25" y1="99" x2="87.25" y2="99"/><line stroke-width="0.5" stroke="white" x1="70.75" y1="102" x2="72.75" y2="102"/><line stroke-width="0.5" stroke="white" x1="89.25" y1="102" x2="87.25" y2="102"/><line stroke-width="1" stroke="white" x1="0" y1="105" x2="160" y2="105"/><line stroke-width="0.5" stroke="white" x1="70.75" y1="108" x2="72.75" y2="108"/><line stroke-width="0.5" stroke="white" x1="89.25" y1="108" x2="87.25" y2="108"/><line stroke-width="0.5" stroke="white" x1="70.75" y1="111" x2="72.75" y2="111"/><line stroke-width="0.5" stroke="white" x1="89.25" y1="111" x2="87.25" y2="111"/><line stroke-width="0.5" stroke="white" x1="70.75" y1="114" x2="72.75" y2="114"/><line stroke-width="0.5" stroke="white" x1="89.25" y1="114" x2="87.25" y2="114"/><line stroke-width="0.5" stroke="white" x1="70.75" y1="117" x2="72.75" y2="117"/><line stroke-width="0.5" stroke="white" x1="89.25" y1="117" x2="87.25" y2="117"/><line stroke-width="1" stroke="white" x1="0" y1="120" x2="160" y2="120"/><line stroke-width="0.5" stroke="white" x1="70.75" y1="123" x2="72.75" y2="123"/><line stroke-width="0.5" stroke="white" x1="89.25" y1="123" x2="87.25" y2="123"/><line stroke-width="0.5" stroke="white" x1="70.75" y1="126" x2="72.75" y2="126"/><line stroke-width="0.5" stroke="white" x1="89.25" y1="126" x2="87.25" y2="126"/><line stroke-width="0.5" stroke="white" x1="70.75" y1="129" x2="72.75" y2="129"/><line stroke-width="0.5" stroke="white" x1="89.25" y1="129" x2="87.25" y2="129"/><line stroke-width="0.5" stroke="white" x1="70.75" y1="132" x2="72.75" y2="132"/><line stroke-width="0.5" stroke="white" x1="89.25" y1="132" x2="87.25" y2="132"/><line stroke-width="1" stroke="white" x1="0" y1="135" x2="160" y2="135"/><line stroke-width="0.5" stroke="white" x1="70.75" y1="138" x2="72.75" y2="138"/><line stroke-width="0.5" stroke="white" x1="89.25" y1="138" x2="87.25" y2="138"/><line stroke-width="0.5" stroke="white" x1="70.75" y1="141" x2="72.75" y2="141"/><line stroke-width="0.5" stroke="white" x1="89.25" y1="141" x2="87.25" y2="141"/><line stroke-width="0.5" stroke="white" x1="70.75" y1="144" x2="72.75" y2="144"/><line stroke-width="0.5" stroke="white" x1="89.25" y1="144" x2="87.25" y2="144"/><line stroke-width="0.5" stroke="white" x1="70.75" y1="147" x2="72.75" y2="147"/><line stroke-width="0.5" stroke="white" x1="89.25" y1="147" x2="87.25" y2="147"/><line stroke-width="1" stroke="white" x1="0" y1="150" x2="160" y2="150"/><line stroke-width="0.5" stroke="white" x1="70.75" y1="153" x2="72.75" y2="153"/><line stroke-width="0.5" stroke="white" x1="89.25" y1="153" x2="87.25" y2="153"/><line stroke-width="0.5" stroke="white" x1="70.75" y1="156" x2="72.75" y2="156"/><line stroke-width="0.5" stroke="white" x1="89.25" y1="156" x2="87.25" y2="156"/><line stroke-width="0.5" stroke="white" x1="70.75" y1="159" x2="72.75" y2="159"/><line stroke-width="0.5" stroke="white" x1="89.25" y1="159" x2="87.25" y2="159"/><line stroke-width="0.5" stroke="white" x1="70.75" y1="162" x2="72.75" y2="162"/><line stroke-width="0.5" stroke="white" x1="89.25" y1="162" x2="87.25" y2="162"/><line stroke-width="1" stroke="white" x1="0" y1="165" x2="160" y2="165"/><line stroke-width="0.5" stroke="white" x1="70.75" y1="168" x2="72.75" y2="168"/><line stroke-width="0.5" stroke="white" x1="89.25" y1="168" x2="87.25" y2="168"/><line stroke-width="0.5" stroke="white" x1="70.75" y1="171" x2="72.75" y2="171"/><line stroke-width="0.5" stroke="white" x1="89.25" y1="171" x2="87.25" y2="171"/><line stroke-width="0.5" stroke="white" x1="70.75" y1="174" x2="72.75" y2="174"/><line stroke-width="0.5" stroke="white" x1="89.25" y1="174" x2="87.25" y2="174"/><line stroke-width="0.5" stroke="white" x1="70.75" y1="177" x2="72.75" y2="177"/><line stroke-width="0.5" stroke="white" x1="89.25" y1="177" x2="87.25" y2="177"/><line stroke-width="1" stroke="white" x1="0" y1="180" x2="160" y2="180"/><line stroke-width="0.5" stroke="white" x1="70.75" y1="183" x2="72.75" y2="183"/><line stroke-width="0.5" stroke="white" x1="89.25" y1="183" x2="87.25" y2="183"/><line stroke-width="0.5" stroke="white" x1="70.75" y1="186" x2="72.75" y2="186"/><line stroke-width="0.5" stroke="white" x1="89.25" y1="186" x2="87.25" y2="186"/><line stroke-width="0.5" stroke="white" x1="70.75" y1="189" x2="72.75" y2="189"/><line stroke-width="0.5" stroke="white" x1="89.25" y1="189" x2="87.25" y2="189"/><line stroke-width="0.5" stroke="white" x1="70.75" y1="192" x2="72.75" y2="192"/><line stroke-width="0.5" stroke="white" x1="89.25" y1="192" x2="87.25" y2="192"/><line stroke-width="1" stroke="white" x1="0" y1="195" x2="160" y2="195"/><line stroke-width="0.5" stroke="white" x1="70.75" y1="198" x2="72.75" y2="198"/><line stroke-width="0.5" stroke="white" x1="89.25" y1="198" x2="87.25" y2="198"/><line stroke-width="0.5" stroke="white" x1="70.75" y1="201" x2="72.75" y2="201"/><line stroke-width="0.5" stroke="white" x1="89.25" y1="201" x2="87.25" y2="201"/><line stroke-width="0.5" stroke="white" x1="70.75" y1="204" x2="72.75" y2="204"/><line stroke-width="0.5" stroke="white" x1="89.25" y1="204" x2="87.25" y2="204"/><line stroke-width="0.5" stroke="white" x1="70.75" y1="207" x2="72.75" y2="207"/><line stroke-width="0.5" stroke="white" x1="89.25" y1="207" x2="87.25" y2="207"/><line stroke-width="1" stroke="white" x1="0" y1="210" x2="160" y2="210"/><line stroke-width="0.5" stroke="white" x1="70.75" y1="213" x2="72.75" y2="213"/><line stroke-width="0.5" stroke="white" x1="89.25" y1="213" x2="87.25" y2="213"/><line stroke-width="0.5" stroke="white" x1="70.75" y1="216" x2="72.75" y2="216"/><line stroke-width="0.5" stroke="white" x1="89.25" y1="216" x2="87.25" y2="216"/><line stroke-width="0.5" stroke="white" x1="70.75" y1="219" x2="72.75" y2="219"/><line stroke-width="0.5" stroke="white" x1="89.25" y1="219" x2="87.25" y2="219"/><line stroke-width="0.5" stroke="white" x1="70.75" y1="222" x2="72.75" y2="222"/><line stroke-width="0.5" stroke="white" x1="89.25" y1="222" x2="87.25" y2="222"/><line stroke-width="1" stroke="white" x1="0" y1="225" x2="160" y2="225"/><line stroke-width="0.5" stroke="white" x1="70.75" y1="228" x2="72.75" y2="228"/><line stroke-width="0.5" stroke="white" x1="89.25" y1="228" x2="87.25" y2="228"/><line stroke-width="0.5" stroke="white" x1="70.75" y1="231" x2="72.75" y2="231"/><line stroke-width="0.5" stroke="white" x1="89.25" y1="231" x2="87.25" y2="231"/><line stroke-width="0.5" stroke="white" x1="70.75" y1="234" x2="72.75" y2="234"/><line stroke-width="0.5" stroke="white" x1="89.25" y1="234" x2="87.25" y2="234"/><line stroke-width="0.5" stroke="white" x1="70.75" y1="237" x2="72.75" y2="237"/><line stroke-width="0.5" stroke="white" x1="89.25" y1="237" x2="87.25" y2="237"/><line stroke-width="1" stroke="white" x1="0" y1="240" x2="160" y2="240"/><line stroke-width="0.5" stroke="white" x1="70.75" y1="243" x2="72.75" y2="243"/><line stroke-width="0.5" stroke="white" x1="89.25" y1="243" x2="87.25" y2="243"/><line stroke-width="0.5" stroke="white" x1="70.75" y1="246" x2="72.75" y2="246"/><line stroke-width="0.5" stroke="white" x1="89.25" y1="246" x2="87.25" y2="246"/><line stroke-width="0.5" stroke="white" x1="70.75" y1="249" x2="72.75" y2="249"/><line stroke-width="0.5" stroke="white" x1="89.25" y1="249" x2="87.25" y2="249"/><line stroke-width="0.5" stroke="white" x1="70.75" y1="252" x2="72.75" y2="252"/><line stroke-width="0.5" stroke="white" x1="89.25" y1="252" x2="87.25" y2="252"/><line stroke-width="1" stroke="white" x1="0" y1="255" x2="160" y2="255"/><line stroke-width="0.5" stroke="white" x1="70.75" y1="258" x2="72.75" y2="258"/><line stroke-width="0.5" stroke="white" x1="89.25" y1="258" x2="87.25" y2="258"/><line stroke-width="0.5" stroke="white" x1="70.75" y1="261" x2="72.75" y2="261"/><line stroke-width="0.5" stroke="white" x1="89.25" y1="261" x2="87.25" y2="261"/><line stroke-width="0.5" stroke="white" x1="70.75" y1="264" x2="72.75" y2="264"/><line stroke-width="0.5" stroke="white" x1="89.25" y1="264" x2="87.25" y2="264"/><line stroke-width="0.5" stroke="white" x1="70.75" y1="267" x2="72.75" y2="267"/><line stroke-width="0.5" stroke="white" x1="89.25" y1="267" x2="87.25" y2="267"/><line stroke-width="1" stroke="white" x1="0" y1="270" x2="160" y2="270"/><line stroke-width="0.5" stroke="white" x1="70.75" y1="273" x2="72.75" y2="273"/><line stroke-width="0.5" stroke="white" x1="89.25" y1="273" x2="87.25" y2="273"/><line stroke-width="0.5" stroke="white" x1="70.75" y1="276" x2="72.75" y2="276"/><line stroke-width="0.5" stroke="white" x1="89.25" y1="276" x2="87.25" y2="276"/><line stroke-width="0.5" stroke="white" x1="70.75" y1="279" x2="72.75" y2="279"/><line stroke-width="0.5" stroke="white" x1="89.25" y1="279" x2="87.25" y2="279"/><line stroke-width="0.5" stroke="white" x1="70.75" y1="282" x2="72.75" y2="282"/><line stroke-width="0.5" stroke="white" x1="89.25" y1="282" x2="87.25" y2="282"/><line stroke-width="1" stroke="white" x1="0" y1="285" x2="160" y2="285"/><line stroke-width="0.5" stroke="white" x1="70.75" y1="288" x2="72.75" y2="288"/><line stroke-width="0.5" stroke="white" x1="89.25" y1="288" x2="87.25" y2="288"/><line stroke-width="0.5" stroke="white" x1="70.75" y1="291" x2="72.75" y2="291"/><line stroke-width="0.5" stroke="white" x1="89.25" y1="291" x2="87.25" y2="291"/><line stroke-width="0.5" stroke="white" x1="70.75" y1="294" x2="72.75" y2="294"/><line stroke-width="0.5" stroke="white" x1="89.25" y1="294" x2="87.25" y2="294"/><line stroke-width="0.5" stroke="white" x1="70.75" y1="297" x2="72.75" y2="297"/><line stroke-width="0.5" stroke="white" x1="89.25" y1="297" x2="87.25" y2="297"/><line stroke-width="1" stroke="white" x1="0" y1="300" x2="160" y2="300"/><line stroke-width="1" stroke="yellow" x1="0" y1="12" x2="160" y2="12"/></g></svg>
